<?xml version="1.0" encoding="UTF-8"?>
<svg width="166px" height="45px" viewBox="0 0 166 45" version="1.1" xmlns="http://www.w3.org/2000/svg" xmlns:xlink="http://www.w3.org/1999/xlink">
    <!-- Generator: Sketch 63.1 (92452) - https://sketch.com -->
    <title>download google play</title>
    <desc>Created with Sketch.</desc>
    <defs>
        <polygon id="path-1" points="0 0 165.999877 0 165.999877 44.9998875 0 44.9998875"></polygon>
        <path d="M1.15093333,0.60525 C0.793111111,0.95175 0.581614815,1.4895 0.581614815,2.185875 L0.581614815,2.185875 L0.581614815,27.066375 C0.581614815,27.763875 0.793111111,28.3005 1.15093333,28.645875 L1.15093333,28.645875 L1.2406963,28.728 L16.4758074,14.790375 L16.4758074,14.626125 L16.4758074,14.461875 L1.2406963,0.523125 L1.15093333,0.60525 Z" id="path-3"></path>
        <path d="M0.490622222,4.899375 L0.490622222,5.063625 L0.490622222,5.227875 L5.56776296,9.87525 L5.68334815,9.81675 L11.6999259,6.68925 C13.4177185,5.794875 13.4177185,4.332375 11.6999259,3.439125 L11.6999259,3.439125 L5.68334815,0.311625 L5.56899259,0.252 L0.490622222,4.899375 Z" id="path-5"></path>
        <path d="M0.536118519,14.020875 C1.10174815,14.569875 2.0374963,14.6385 3.09128889,14.090625 L3.09128889,14.090625 L21.0537185,4.753125 L15.8609926,0.001125 L0.536118519,14.020875 Z" id="path-7"></path>
        <linearGradient x1="86.2450611%" y1="34.0126967%" x2="-50.1463922%" y2="122.003008%" id="linearGradient-9">
            <stop stop-color="#FF3A44" offset="0%"></stop>
            <stop stop-color="#C31162" offset="100%"></stop>
        </linearGradient>
        <path d="M0.536118519,0.60525 L15.8609926,14.626125 L21.0537185,9.874125 L3.09128889,0.536625 C2.59697778,0.279 2.12848889,0.1575 1.71287407,0.1575 L1.71287407,0.1575 C1.2406963,0.1575 0.836148148,0.313875 0.536118519,0.60525" id="path-10"></path>
    </defs>
    <g id="Landing-Page-Desktop" stroke="none" stroke-width="1" fill="none" fill-rule="evenodd">
        <g id="seakom---landing-page" transform="translate(-735.000000, -3885.000000)">
            <g id="How-it-work" transform="translate(127.000000, 3369.000000)">
                <g id="1" transform="translate(54.000000, 205.000000)">
                    <g id="Group-3" transform="translate(435.000000, 147.000000)">
                        <g id="btn-download" transform="translate(119.000000, 164.000000)">
                            <g id="download-google-play">
                                <g id="Group-29" transform="translate(0.000000, 0.000225)">
                                    <g id="Group-3">
                                        <mask id="mask-2" fill="white">
                                            <use xlink:href="#path-1"></use>
                                        </mask>
                                        <g id="Clip-2"></g>
                                        <path d="M159.851729,44.9998875 L6.14802519,44.9998875 C2.7665437,44.9998875 -0.000122962963,42.4686375 -0.000122962963,39.3748875 L-0.000122962963,5.6248875 C-0.000122962963,2.5311375 2.7665437,-0.0001125 6.14802519,-0.0001125 L159.851729,-0.0001125 C163.23321,-0.0001125 165.999877,2.5311375 165.999877,5.6248875 L165.999877,39.3748875 C165.999877,42.4686375 163.23321,44.9998875 159.851729,44.9998875" id="Fill-1" fill="#000000" mask="url(#mask-2)"></path>
                                    </g>
                                    <path d="M58.3070696,11.5234875 C58.3070696,12.4662375 58.0021215,13.2166125 57.3909956,13.7768625 C56.6962548,14.4428625 55.792477,14.7758625 54.6808919,14.7758625 C53.6160326,14.7758625 52.7097956,14.4383625 51.9658696,13.7622375 C51.2194844,13.0872375 50.8481363,12.2491125 50.8481363,11.2501125 C50.8481363,10.2499875 51.2194844,9.4129875 51.9658696,8.7368625 C52.7097956,8.0618625 53.6160326,7.7243625 54.6808919,7.7243625 C55.208403,7.7243625 55.7150104,7.8188625 56.1945659,8.0067375 C56.6753511,8.1957375 57.0602252,8.4466125 57.3491881,8.7604875 L56.6999437,9.3544875 C56.2117807,8.8212375 55.5391733,8.5534875 54.6808919,8.5534875 C53.9037659,8.5534875 53.2323881,8.8032375 52.6655289,9.3027375 C52.0986696,9.8033625 51.8158548,10.4513625 51.8158548,11.2501125 C51.8158548,12.0477375 52.0986696,12.6968625 52.6655289,13.1963625 C53.2323881,13.6969875 53.9037659,13.9456125 54.6808919,13.9456125 C55.5047437,13.9456125 56.190877,13.6947375 56.7417511,13.1918625 C57.0983437,12.8644875 57.3049215,12.4099875 57.3590252,11.8249875 L54.6808919,11.8249875 L54.6808919,11.0138625 L58.2554252,11.0138625 C58.2898548,11.1904875 58.3070696,11.3592375 58.3070696,11.5234875" id="Fill-7" fill="#FFFFFF"></path>
                                    <path d="M58.3070696,11.5234875 C58.3070696,12.4662375 58.0021215,13.2166125 57.3909956,13.7768625 C56.6962548,14.4428625 55.792477,14.7758625 54.6808919,14.7758625 C53.6160326,14.7758625 52.7097956,14.4383625 51.9658696,13.7622375 C51.2194844,13.0872375 50.8481363,12.2491125 50.8481363,11.2501125 C50.8481363,10.2499875 51.2194844,9.4129875 51.9658696,8.7368625 C52.7097956,8.0618625 53.6160326,7.7243625 54.6808919,7.7243625 C55.208403,7.7243625 55.7150104,7.8188625 56.1945659,8.0067375 C56.6753511,8.1957375 57.0602252,8.4466125 57.3491881,8.7604875 L56.6999437,9.3544875 C56.2117807,8.8212375 55.5391733,8.5534875 54.6808919,8.5534875 C53.9037659,8.5534875 53.2323881,8.8032375 52.6655289,9.3027375 C52.0986696,9.8033625 51.8158548,10.4513625 51.8158548,11.2501125 C51.8158548,12.0477375 52.0986696,12.6968625 52.6655289,13.1963625 C53.2323881,13.6969875 53.9037659,13.9456125 54.6808919,13.9456125 C55.5047437,13.9456125 56.190877,13.6947375 56.7417511,13.1918625 C57.0983437,12.8644875 57.3049215,12.4099875 57.3590252,11.8249875 L54.6808919,11.8249875 L54.6808919,11.0138625 L58.2554252,11.0138625 C58.2898548,11.1904875 58.3070696,11.3592375 58.3070696,11.5234875 Z" id="Stroke-9" stroke="#FFFFFF" stroke-width="0.2"></path>
                                    <polygon id="Fill-11" fill="#FFFFFF" points="63.9748015 8.70435 60.6154533 8.70435 60.6154533 10.8441 63.6440311 10.8441 63.6440311 11.655225 60.6154533 11.655225 60.6154533 13.794975 63.9748015 13.794975 63.9748015 14.625225 59.6674089 14.625225 59.6674089 7.875225 63.9748015 7.875225"></polygon>
                                    <polygon id="Stroke-13" stroke="#FFFFFF" stroke-width="0.2" points="63.9748015 8.70435 60.6154533 8.70435 60.6154533 10.8441 63.6440311 10.8441 63.6440311 11.655225 60.6154533 11.655225 60.6154533 13.794975 63.9748015 13.794975 63.9748015 14.625225 59.6674089 14.625225 59.6674089 7.875225 63.9748015 7.875225"></polygon>
                                    <polygon id="Fill-15" fill="#FFFFFF" points="67.9723274 14.6248875 67.024283 14.6248875 67.024283 8.7040125 64.9634237 8.7040125 64.9634237 7.8748875 70.0331867 7.8748875 70.0331867 8.7040125 67.9723274 8.7040125"></polygon>
                                    <polygon id="Stroke-17" stroke="#FFFFFF" stroke-width="0.2" points="67.9723274 14.6248875 67.024283 14.6248875 67.024283 8.7040125 64.9634237 8.7040125 64.9634237 7.8748875 70.0331867 7.8748875 70.0331867 8.7040125 67.9723274 8.7040125"></polygon>
                                    <polygon id="Fill-19" fill="#FFFFFF" points="73.7015407 14.625 74.6495852 14.625 74.6495852 7.875 73.7015407 7.875"></polygon>
                                    <polygon id="Stroke-21" stroke="#FFFFFF" stroke-width="0.2" points="73.7015407 14.625 74.6495852 14.625 74.6495852 7.875 73.7015407 7.875"></polygon>
                                    <polygon id="Fill-22" fill="#FFFFFF" points="78.8540578 14.6248875 77.9060133 14.6248875 77.9060133 8.7040125 75.8451541 8.7040125 75.8451541 7.8748875 80.914917 7.8748875 80.914917 8.7040125 78.8540578 8.7040125"></polygon>
                                    <polygon id="Stroke-23" stroke="#FFFFFF" stroke-width="0.2" points="78.8540578 14.6248875 77.9060133 14.6248875 77.9060133 8.7040125 75.8451541 8.7040125 75.8451541 7.8748875 80.914917 7.8748875 80.914917 8.7040125 78.8540578 8.7040125"></polygon>
                                    <path d="M85.8025719,13.1873625 C86.3485274,13.6936125 87.0162163,13.9456125 87.8068681,13.9456125 C88.5962904,13.9456125 89.2652089,13.6936125 89.8111644,13.1873625 C90.35712,12.6811125 90.6313274,12.0353625 90.6313274,11.2501125 C90.6313274,10.4648625 90.35712,9.8179875 89.8111644,9.3128625 C89.2652089,8.8066125 88.5962904,8.5534875 87.8068681,8.5534875 C87.0162163,8.5534875 86.3485274,8.8066125 85.8025719,9.3128625 C85.2578459,9.8179875 84.9836385,10.4648625 84.9836385,11.2501125 C84.9836385,12.0353625 85.2578459,12.6811125 85.8025719,13.1873625 M90.5120533,13.7521125 C89.7865719,14.4349875 88.8852533,14.7758625 87.8068681,14.7758625 C86.728483,14.7758625 85.8271644,14.4349875 85.1029126,13.7521125 C84.3774311,13.0703625 84.01592,12.2367375 84.01592,11.2501125 C84.01592,10.2634875 84.3774311,9.4287375 85.1029126,8.7469875 C85.8271644,8.0652375 86.728483,7.7243625 87.8068681,7.7243625 C88.8791052,7.7243625 89.7779644,8.0663625 90.5071348,8.7514875 C91.2350756,9.4366125 91.5990459,10.2691125 91.5990459,11.2501125 C91.5990459,12.2367375 91.2363052,13.0703625 90.5120533,13.7521125" id="Fill-24" fill="#FFFFFF"></path>
                                    <path d="M85.8025719,13.1873625 C86.3485274,13.6936125 87.0162163,13.9456125 87.8068681,13.9456125 C88.5962904,13.9456125 89.2652089,13.6936125 89.8111644,13.1873625 C90.35712,12.6811125 90.6313274,12.0353625 90.6313274,11.2501125 C90.6313274,10.4648625 90.35712,9.8179875 89.8111644,9.3128625 C89.2652089,8.8066125 88.5962904,8.5534875 87.8068681,8.5534875 C87.0162163,8.5534875 86.3485274,8.8066125 85.8025719,9.3128625 C85.2578459,9.8179875 84.9836385,10.4648625 84.9836385,11.2501125 C84.9836385,12.0353625 85.2578459,12.6811125 85.8025719,13.1873625 Z M90.5120533,13.7521125 C89.7865719,14.4349875 88.8852533,14.7758625 87.8068681,14.7758625 C86.728483,14.7758625 85.8271644,14.4349875 85.1029126,13.7521125 C84.3774311,13.0703625 84.01592,12.2367375 84.01592,11.2501125 C84.01592,10.2634875 84.3774311,9.4287375 85.1029126,8.7469875 C85.8271644,8.0652375 86.728483,7.7243625 87.8068681,7.7243625 C88.8791052,7.7243625 89.7779644,8.0663625 90.5071348,8.7514875 C91.2350756,9.4366125 91.5990459,10.2691125 91.5990459,11.2501125 C91.5990459,12.2367375 91.2363052,13.0703625 90.5120533,13.7521125 Z" id="Stroke-25" stroke="#FFFFFF" stroke-width="0.2"></path>
                                    <polygon id="Fill-26" fill="#FFFFFF" points="92.9293822 14.6248875 92.9293822 7.8748875 94.0827748 7.8748875 97.6683748 13.1252625 97.7101822 13.1252625 97.6683748 11.8247625 97.6683748 7.8748875 98.6176489 7.8748875 98.6176489 14.6248875 97.627797 14.6248875 93.8774267 9.1191375 93.8356193 9.1191375 93.8774267 10.4207625 93.8774267 14.6248875"></polygon>
                                    <polygon id="Stroke-27" stroke="#FFFFFF" stroke-width="0.2" points="92.9293822 14.6248875 92.9293822 7.8748875 94.0827748 7.8748875 97.6683748 13.1252625 97.7101822 13.1252625 97.6683748 11.8247625 97.6683748 7.8748875 98.6176489 7.8748875 98.6176489 14.6248875 97.627797 14.6248875 93.8774267 9.1191375 93.8356193 9.1191375 93.8774267 10.4207625 93.8774267 14.6248875"></polygon>
                                    <path d="M131.491674,33.75 L133.784933,33.75 L133.784933,19.686375 L131.491674,19.686375 L131.491674,33.75 Z M152.158059,24.75225 L149.527881,30.84975 L149.449185,30.84975 L146.719407,24.75225 L144.247852,24.75225 L148.342519,33.274125 L146.007452,38.014875 L148.400311,38.014875 L154.709541,24.75225 L152.158059,24.75225 Z M139.144889,32.1525 C138.394815,32.1525 137.345941,31.80825 137.345941,30.95775 C137.345941,29.87325 138.651807,29.455875 139.779378,29.455875 C140.786444,29.455875 141.262311,29.656125 141.874667,29.926125 C141.69637,31.23 140.47043,32.1525 139.144889,32.1525 L139.144889,32.1525 Z M139.422785,24.444 C137.761556,24.444 136.041304,25.1145 135.329348,26.59725 L137.365615,27.37575 C137.800904,26.59725 138.61123,26.344125 139.462133,26.344125 C140.648726,26.344125 141.854993,26.9955 141.874667,28.153125 L141.874667,28.29825 C141.459052,28.081125 140.5688,27.756 139.481807,27.756 C137.285689,27.756 135.051452,28.859625 135.051452,30.92175 C135.051452,32.803875 136.85163,34.016625 138.868222,34.016625 C140.410178,34.016625 141.262311,33.38325 141.794741,32.64075 L141.874667,32.64075 L141.874667,33.726375 L144.090459,33.726375 L144.090459,28.33425 C144.090459,25.837875 142.051733,24.444 139.422785,24.444 L139.422785,24.444 Z M125.242696,26.4645 L121.979259,26.4645 L121.979259,21.643875 L125.242696,21.643875 C126.95803,21.643875 127.931896,22.942125 127.931896,24.053625 C127.931896,25.14375 126.95803,26.4645 125.242696,26.4645 L125.242696,26.4645 Z M125.183674,19.68525 L119.686,19.68525 L119.686,33.75 L121.979259,33.75 L121.979259,28.422 L125.183674,28.422 C127.726548,28.422 130.226385,26.73675 130.226385,24.053625 C130.226385,21.3705 127.726548,19.68525 125.183674,19.68525 L125.183674,19.68525 Z M95.2040741,32.15475 C93.6190815,32.15475 92.2923111,30.940875 92.2923111,29.273625 C92.2923111,27.58725 93.6190815,26.355375 95.2040741,26.355375 C96.768163,26.355375 97.996563,27.58725 97.996563,29.273625 C97.996563,30.940875 96.768163,32.15475 95.2040741,32.15475 L95.2040741,32.15475 Z M97.8379407,25.53975 L97.7592444,25.53975 C97.2440296,24.978375 96.2529481,24.469875 95.0061037,24.469875 C92.3906815,24.469875 89.9929037,26.5725 89.9929037,29.273625 C89.9929037,31.955625 92.3906815,34.04025 95.0061037,34.04025 C96.2529481,34.04025 97.2440296,33.532875 97.7592444,32.952375 L97.8379407,32.952375 L97.8379407,33.640875 C97.8379407,35.472375 96.768163,36.45 95.0454519,36.45 C93.6387556,36.45 92.7669481,35.526375 92.4103556,34.74675 L90.4097481,35.508375 C90.9839852,36.77625 92.5087259,38.3355 95.0454519,38.3355 C97.7395704,38.3355 100.018074,36.885375 100.018074,33.350625 L100.018074,24.760125 L97.8379407,24.760125 L97.8379407,25.53975 Z M101.603067,33.75 L103.900015,33.75 L103.900015,19.686375 L101.603067,19.686375 L101.603067,33.75 Z M107.287644,29.1105 C107.228622,27.261 108.852963,26.319375 110.021111,26.319375 C110.933496,26.319375 111.705704,26.73675 111.963926,27.334125 L107.287644,29.1105 Z M114.419496,27.51525 C113.982978,26.4465 112.656207,24.469875 109.942415,24.469875 C107.248296,24.469875 105.009141,26.409375 105.009141,29.255625 C105.009141,31.937625 107.228622,34.04025 110.199407,34.04025 C112.595956,34.04025 113.982978,32.69925 114.558444,31.919625 L112.775481,30.83175 C112.180341,31.629375 111.368785,32.15475 110.199407,32.15475 C109.031259,32.15475 108.1988,31.665375 107.665141,30.704625 L114.656815,28.058625 L114.419496,27.51525 Z M58.707437,25.939125 L58.707437,27.968625 L64.0157481,27.968625 C63.8583556,29.1105 63.4415111,29.944125 62.8082519,30.5235 C62.0348148,31.231125 60.8260889,32.01075 58.707437,32.01075 C55.4378519,32.01075 52.8826815,29.599875 52.8826815,26.609625 C52.8826815,23.619375 55.4378519,21.207375 58.707437,21.207375 C60.4707259,21.207375 61.7581481,21.841875 62.7086519,22.658625 L64.2739704,21.2265 C62.9459704,20.066625 61.1839111,19.177875 58.707437,19.177875 C54.2291259,19.177875 50.4652296,22.5135 50.4652296,26.609625 C50.4652296,30.704625 54.2291259,34.04025 58.707437,34.04025 C61.1236593,34.04025 62.9459704,33.314625 64.3723407,31.955625 C65.8380593,30.614625 66.2942519,28.729125 66.2942519,27.207 C66.2942519,26.73675 66.2549037,26.301375 66.1749778,25.939125 L58.707437,25.939125 Z M72.3292741,32.15475 C70.7455111,32.15475 69.378163,30.958875 69.378163,29.255625 C69.378163,27.53325 70.7455111,26.355375 72.3292741,26.355375 C73.9142667,26.355375 75.2816148,27.53325 75.2816148,29.255625 C75.2816148,30.958875 73.9142667,32.15475 72.3292741,32.15475 L72.3292741,32.15475 Z M72.3292741,24.469875 C69.4371852,24.469875 67.0799852,26.4825 67.0799852,29.255625 C67.0799852,32.01075 69.4371852,34.04025 72.3292741,34.04025 C75.2225926,34.04025 77.5797926,32.01075 77.5797926,29.255625 C77.5797926,26.4825 75.2225926,24.469875 72.3292741,24.469875 L72.3292741,24.469875 Z M83.7820444,32.15475 C82.1970519,32.15475 80.8297037,30.958875 80.8297037,29.255625 C80.8297037,27.53325 82.1970519,26.355375 83.7820444,26.355375 C85.367037,26.355375 86.7331556,27.53325 86.7331556,29.255625 C86.7331556,30.958875 85.367037,32.15475 83.7820444,32.15475 L83.7820444,32.15475 Z M83.7820444,24.469875 C80.8899556,24.469875 78.5327556,26.4825 78.5327556,29.255625 C78.5327556,32.01075 80.8899556,34.04025 83.7820444,34.04025 C86.6741333,34.04025 89.0313333,32.01075 89.0313333,29.255625 C89.0313333,26.4825 86.6741333,24.469875 83.7820444,24.469875 L83.7820444,24.469875 Z" id="Fill-28" fill="#FFFFFF"></path>
                                </g>
                                <g id="Group-32" transform="translate(11.681481, 7.875225)">
                                    <mask id="mask-4" fill="white">
                                        <use xlink:href="#path-3"></use>
                                    </mask>
                                    <g id="Clip-31"></g>
                                    <path d="M1.15093333,0.60525 C0.793111111,0.95175 0.581614815,1.4895 0.581614815,2.185875 L0.581614815,2.185875 L0.581614815,27.066375 C0.581614815,27.763875 0.793111111,28.3005 1.15093333,28.645875 L1.15093333,28.645875 L1.2406963,28.728 L16.4758074,14.790375 L16.4758074,14.626125 L16.4758074,14.461875 L1.2406963,0.523125 L1.15093333,0.60525 Z" id="Fill-30" fill="#00D2FF" mask="url(#mask-4)"></path>
                                </g>
                                <g id="Group-35" transform="translate(27.666667, 17.437725)">
                                    <mask id="mask-6" fill="white">
                                        <use xlink:href="#path-5"></use>
                                    </mask>
                                    <g id="Clip-34"></g>
                                    <path d="M0.490622222,4.899375 L0.490622222,5.063625 L0.490622222,5.227875 L5.56776296,9.87525 L5.68334815,9.81675 L11.6999259,6.68925 C13.4177185,5.794875 13.4177185,4.332375 11.6999259,3.439125 L11.6999259,3.439125 L5.68334815,0.311625 L5.56899259,0.252 L0.490622222,4.899375 Z" id="Fill-33" fill="#FFC802" mask="url(#mask-6)"></path>
                                </g>
                                <g id="Group-38" transform="translate(12.296296, 22.500225)">
                                    <mask id="mask-8" fill="white">
                                        <use xlink:href="#path-7"></use>
                                    </mask>
                                    <g id="Clip-37"></g>
                                    <path d="M0.536118519,14.020875 C1.10174815,14.569875 2.0374963,14.6385 3.09128889,14.090625 L3.09128889,14.090625 L21.0537185,4.753125 L15.8609926,0.001125 L0.536118519,14.020875 Z" id="Fill-36" fill="url(#linearGradient-9)" mask="url(#mask-8)"></path>
                                </g>
                                <g id="Group-41" transform="translate(12.296296, 7.875225)">
                                    <mask id="mask-11" fill="white">
                                        <use xlink:href="#path-10"></use>
                                    </mask>
                                    <g id="Clip-40"></g>
                                    <path d="M0.536118519,0.60525 L15.8609926,14.626125 L21.0537185,9.874125 L3.09128889,0.536625 C2.59697778,0.279 2.12848889,0.1575 1.71287407,0.1575 L1.71287407,0.1575 C1.2406963,0.1575 0.836148148,0.313875 0.536118519,0.60525" id="Fill-39" fill="#00F076" mask="url(#mask-11)"></path>
                                </g>
                                <g id="Group-50" transform="translate(11.681481, 7.875225)">
                                    <path d="M21.5538089,19.2731625 L3.70573481,28.5521625 C2.70727556,29.0696625 1.81456444,29.0359125 1.24155704,28.5634125 L1.15056444,28.6477875 L1.24032741,28.7287875 L1.24155704,28.7276625 C1.81456444,29.2001625 2.70727556,29.2350375 3.70573481,28.7164125 L21.6681644,19.3777875 L21.5538089,19.2731625 Z" id="Fill-42" fill="#000000"></path>
                                    <path d="M1.15019556,28.4830875 C0.792373333,28.1365875 0.580877037,27.5988375 0.580877037,26.9024625 L0.580877037,27.0667125 C0.580877037,27.7630875 0.792373333,28.3008375 1.15019556,28.6473375 L1.24118815,28.5640875 L1.15019556,28.4830875 Z" id="Fill-44" fill="#000000"></path>
                                    <path d="M27.6846193,16.0860375 L21.5536859,19.2731625 L21.6680415,19.3777875 L27.6846193,16.2502875 C28.5441304,15.8036625 28.9732711,15.2152875 28.9732711,14.6269125 C28.900723,15.1590375 28.4642044,15.6810375 27.6846193,16.0860375" id="Fill-46" fill="#000000"></path>
                                    <path d="M3.70561185,0.7007625 L27.6846193,13.1657625 C28.4642044,13.5707625 28.900723,14.0927625 28.9732737,14.6260125 C28.9745007,14.0376375 28.5441304,13.4481375 27.6846193,13.0015125 L3.70561185,0.5365125 C1.98658963,-0.3567375 0.581122963,0.3857625 0.581122963,2.1857625 L0.581122963,2.3500125 C0.581122963,0.5500125 1.98658963,-0.1924875 3.70561185,0.7007625" id="Fill-48" fill="#FFFFFF"></path>
                                </g>
                            </g>
                        </g>
                    </g>
                </g>
            </g>
        </g>
    </g>
</svg>