<?xml version="1.0" encoding="UTF-8"?>
<svg width="166px" height="45px" viewBox="0 0 166 45" version="1.1" xmlns="http://www.w3.org/2000/svg" xmlns:xlink="http://www.w3.org/1999/xlink">
    <!-- Generator: Sketch 63.1 (92452) - https://sketch.com -->
    <title>download appstore</title>
    <desc>Created with Sketch.</desc>
    <defs>
        <polygon id="path-1" points="0 0 165.999877 0 165.999877 44.9998875 0 44.9998875"></polygon>
    </defs>
    <g id="Landing-Page-Desktop" stroke="none" stroke-width="1" fill="none" fill-rule="evenodd">
        <g id="seakom---landing-page" transform="translate(-921.000000, -3885.000000)">
            <g id="How-it-work" transform="translate(127.000000, 3369.000000)">
                <g id="1" transform="translate(54.000000, 205.000000)">
                    <g id="Group-3" transform="translate(435.000000, 147.000000)">
                        <g id="btn-download" transform="translate(119.000000, 164.000000)">
                            <g id="download-appstore" transform="translate(186.000000, 0.000000)">
                                <g id="Group-3-Copy" transform="translate(0.000000, 0.000225)">
                                    <mask id="mask-2" fill="white">
                                        <use xlink:href="#path-1"></use>
                                    </mask>
                                    <g id="Clip-2"></g>
                                    <path d="M159.851729,44.9998875 L6.14802519,44.9998875 C2.7665437,44.9998875 -0.000122962963,42.4686375 -0.000122962963,39.3748875 L-0.000122962963,5.6248875 C-0.000122962963,2.5311375 2.7665437,-0.0001125 6.14802519,-0.0001125 L159.851729,-0.0001125 C163.23321,-0.0001125 165.999877,2.5311375 165.999877,5.6248875 L165.999877,39.3748875 C165.999877,42.4686375 163.23321,44.9998875 159.851729,44.9998875" id="Fill-1" fill="#000000" mask="url(#mask-2)"></path>
                                </g>
                                <g id="Group" transform="translate(1.844444, 0.562500)" fill-rule="nonzero">
                                    <g fill="#000000" id="Shape">
                                        <path d="M10.5257659,43.453125 C10.1206791,43.453125 9.72537776,43.4487375 9.32346854,43.4410875 C8.49088105,43.4319083 7.66023952,43.3705782 6.83835629,43.2576 C6.07199165,43.1459192 5.32959032,42.9381725 4.63564014,42.6412125 C3.94805311,42.346713 3.32091847,41.960557 2.77826091,41.4975375 C2.2277485,41.0399722 1.76942177,40.5092745 1.42144339,39.926475 C1.06963058,39.3398878 0.82615518,38.711137 0.69949856,38.062125 C0.562720407,37.3647542 0.488717759,36.6596024 0.478128738,35.95275 C0.469699401,35.7154875 0.458664148,34.9255125 0.458664148,34.9255125 L0.458664148,8.9373825 C0.458664148,8.9373825 0.470417357,8.15954625 0.478195215,7.931025 C0.488334122,7.22529231 0.561906443,6.52123473 0.698275376,5.82494625 C0.825165786,5.17415634 1.06882967,4.54359248 1.42083179,3.95508375 C1.76753127,3.37268683 2.22331346,2.84159283 2.77050964,2.38239 C3.31709078,1.9188241 3.94623151,1.53067963 4.63498866,1.23211125 C5.32734394,0.936105303 6.06834223,0.729824113 6.83315776,0.62017875 C7.65774018,0.506065656 8.49126538,0.444370595 9.32673923,0.43561125 L10.5264174,0.421875 L147.162187,0.421875 L148.376198,0.4361625 C149.204072,0.444486597 150.030026,0.505631257 150.847031,0.61907625 C151.619589,0.730096952 152.368309,0.937817476 153.068573,1.2354075 C154.448403,1.8371093 155.571145,2.78905832 156.279433,3.95782875 C156.625817,4.54227476 156.865722,5.1676951 156.991007,5.81286375 C157.129,6.5148653 157.206231,7.22445563 157.222083,7.935975 C157.225938,8.254575 157.225938,8.5968 157.225938,8.9373825 C157.236442,9.3592575 157.236442,9.76080375 157.236442,10.1656463 L157.236442,33.7104 C157.236442,34.1191125 157.236442,34.517925 157.225938,34.92 C157.225938,35.28585 157.225938,35.6209875 157.220753,35.9659125 C157.205244,36.6647351 157.129301,37.3616598 156.993533,38.0511 C156.869473,38.7047938 156.627323,39.3384523 156.275577,39.92985 C155.925139,40.5063238 155.469444,41.0324245 154.925288,41.4887625 C154.382142,41.9542702 153.753901,42.3426855 153.064718,42.639075 C152.366394,42.9383179 151.618775,43.1468328 150.847031,43.2576 C150.02521,43.3711811 149.194488,43.4325152 148.361839,43.4410875 C147.972414,43.4487375 147.564641,43.453125 147.168702,43.453125 L145.727471,43.455375 L10.5257659,43.453125 Z"></path>
                                    </g>
                                    <g id="_Group_" transform="translate(15.985185, 9.000000)" fill="#FFFFFF">
                                        <g id="_Group_2">
                                            <g id="_Group_3">
                                                <path d="M18.7750673,13.275765 C18.8019433,11.3672353 19.8955586,9.60433437 21.6727633,8.6046975 C20.5465118,7.13307686 18.7277413,6.23348815 16.7651147,6.1773075 C14.7002714,5.979015 12.6984959,7.30774125 11.6462895,7.30774125 C10.5737204,7.30774125 8.95368341,6.196995 7.20917096,6.22983375 C4.91384748,6.29768072 2.82585756,7.46271616 1.709136,9.2986875 C-0.668967704,13.06566 1.1048837,18.6018412 3.38290785,21.6467775 C4.52265156,23.1377962 5.85468474,24.8033025 7.59762326,24.74424 C9.30319333,24.6795187 9.94019067,23.7492 11.9989596,23.7492 C14.03862,23.7492 14.6362569,24.74424 16.4145596,24.7066875 C18.2447157,24.6795075 19.3978009,23.2090425 20.497557,21.703905 C21.316461,20.6414997 21.9466063,19.4673104 22.3646513,18.2248312 C20.1909816,17.3837039 18.7776043,15.4350386 18.7750673,13.275765 L18.7750673,13.275765 Z" id="_Path_"></path>
                                                <path d="M15.4161741,4.17475125 C16.4140512,3.07876714 16.9056674,1.67006526 16.7866209,0.24780375 C15.2620865,0.394301798 13.8538438,1.06093088 12.8424855,2.114865 C11.8438156,3.15471265 11.3378918,4.51511176 11.4361458,5.89642875 C12.9811223,5.91098261 14.448045,5.27642237 15.4161741,4.17475125 L15.4161741,4.17475125 Z" id="_Path_2"></path>
                                            </g>
                                        </g>
                                        <g id="Group" transform="translate(30.125926, 10.125000)">
                                            <path d="M10.2087172,10.8446063 L4.3883883,10.8446063 L2.9906437,14.6206125 L0.525383852,14.6206125 L6.03830533,0.6503625 L8.59962385,0.6503625 L14.1125453,14.6206125 L11.6052444,14.6206125 L10.2087172,10.8446063 Z M4.99118963,9.1021725 L9.60476,9.1021725 L7.33042474,2.97399375 L7.26677911,2.97399375 L4.99118963,9.1021725 Z" id="Shape"></path>
                                            <path d="M26.0185818,9.52844625 C26.0185818,12.6936113 24.1669317,14.7271725 21.3726476,14.7271725 C19.9283065,14.7962977 18.5678161,14.1041595 17.8698877,12.9451725 L17.8170136,12.9451725 L17.8170136,17.9901 L15.5318699,17.9901 L15.5318699,4.4351775 L17.7438015,4.4351775 L17.7438015,6.12927 L17.7858302,6.12927 C18.5147649,4.97754891 19.8767223,4.28570869 21.3306188,4.32860625 C24.1560741,4.3286175 26.0185818,6.3720675 26.0185818,9.52844625 Z M23.6697924,9.52844625 C23.6697924,7.46632125 22.5050012,6.110595 20.7278052,6.110595 C18.9818295,6.110595 17.8074348,7.49487375 17.8074348,9.52844625 C17.8074348,11.5806938 18.9818295,12.9550838 20.7278052,12.9550838 C22.5050135,12.9550838 23.6697924,11.6092575 23.6697924,9.52844625 Z" id="Shape"></path>
                                            <path d="M38.2716443,9.52844625 C38.2716443,12.6936113 36.4199942,14.7271725 33.6257101,14.7271725 C32.181369,14.7962977 30.8208787,14.1041595 30.1229502,12.9451725 L30.0700761,12.9451725 L30.0700761,17.9901 L27.7849324,17.9901 L27.7849324,4.4351775 L29.9968148,4.4351775 L29.9968148,6.12927 L30.0388436,6.12927 C30.7677835,4.9775496 32.1297461,4.28571346 33.5836444,4.3286175 C36.4091858,4.3286175 38.2716443,6.3720675 38.2716443,9.52844625 Z M35.9228673,9.52844625 C35.9228673,7.46632125 34.7580637,6.110595 32.9808677,6.110595 C31.234892,6.110595 30.0604973,7.49487375 30.0604973,9.52844625 C30.0604973,11.5806938 31.234892,12.9550838 32.9808677,12.9550838 C34.758076,12.9550838 35.9228673,11.6092575 35.9228673,9.52844625 L35.9228673,9.52844625 Z" id="Shape"></path>
                                            <path d="M46.3699113,10.7281462 C46.5392313,12.1135275 48.0102372,13.0231462 50.0203742,13.0231462 C51.9464784,13.0231462 53.3322095,12.1134825 53.3322095,10.8643275 C53.3322095,9.77997375 52.4964425,9.1307025 50.5175135,8.6857425 L48.5385844,8.24958 C45.7346969,7.6299525 44.433011,6.43024125 44.433011,4.4834625 C44.433011,2.07306 46.7289631,0.41742 49.9891539,0.41742 C53.2157021,0.41742 55.4276213,2.07306 55.5020754,4.4834625 L53.1952902,4.4834625 C53.0572028,3.089295 51.7975456,2.24775 49.956704,2.24775 C48.1158624,2.24775 46.8562175,3.099195 46.8562175,4.33845 C46.8562175,5.32612125 47.6607641,5.90729625 49.6288847,6.3522 L51.3112148,6.7301325 C54.4441267,7.40799 55.7458126,8.5593825 55.7458126,10.60281 C55.7458126,13.216455 53.4702723,14.85342 49.8510296,14.85342 C46.4647403,14.85342 44.1784039,13.2549075 44.0307007,10.728045 L46.3699113,10.7281462 Z" id="Shape"></path>
                                            <path d="M60.6775619,2.024775 L60.6775619,4.4351775 L62.7945907,4.4351775 L62.7945907,6.0908175 L60.6775619,6.0908175 L60.6775619,11.7059287 C60.6775619,12.5782425 61.1014521,12.9847387 62.0320727,12.9847387 C62.2833985,12.9807292 62.5343176,12.9645817 62.7837822,12.9363637 L62.7837822,14.582115 C62.3653741,14.653642 61.9400974,14.6860363 61.5145216,14.6787975 C59.2606105,14.6787975 58.3816098,13.9042575 58.3816098,11.928915 L58.3816098,6.0908175 L56.7629253,6.0908175 L56.7629253,4.4351775 L58.3815852,4.4351775 L58.3815852,2.024775 L60.6775619,2.024775 Z" id="Shape"></path>
                                            <path d="M64.0206667,9.52844625 C64.0206667,6.3237375 66.0836532,4.3099425 69.3006348,4.3099425 C72.5284126,4.3099425 74.5817957,6.3236925 74.5817957,9.52844625 C74.5817957,12.7419525 72.539221,14.74695 69.3006348,14.74695 C66.0631921,14.74695 64.0206667,12.7419412 64.0206667,9.52844625 Z M72.2534182,9.52844625 C72.2534182,7.33008375 71.1522726,6.03259875 69.3006225,6.03259875 C67.4489724,6.03259875 66.3490319,7.3399725 66.3490319,9.52844625 C66.3490319,11.735595 67.4489724,13.0232025 69.3006225,13.0232025 C71.1522726,13.0232025 72.2534182,11.735595 72.2534182,9.52844625 L72.2534182,9.52844625 Z" id="Shape"></path>
                                            <path d="M76.4658096,4.4351775 L78.6452913,4.4351775 L78.6452913,6.1688025 L78.6981653,6.1688025 C79.0021003,5.05278946 80.1197802,4.2847105 81.3759667,4.328595 C81.6393091,4.32775376 81.901925,4.35391959 82.1588964,4.4066025 L82.1588964,6.3621675 C81.8264427,6.26922373 81.4796363,6.2265502 81.1321557,6.23583 C80.4603454,6.21089487 79.810182,6.45585157 79.3523793,6.90638172 C78.8945765,7.35691187 78.6748719,7.96800458 78.7509533,8.579205 L78.7509533,14.62059 L76.4658096,14.62059 L76.4658096,4.4351775 Z" id="Shape"></path>
                                            <path d="M92.6947689,11.6290237 C92.3873615,13.4780175 90.4192286,14.7469387 87.9011316,14.7469387 C84.6625453,14.7469387 82.652396,12.7617075 82.652396,9.57677625 C82.652396,6.38195625 84.6733538,4.30993125 87.8050729,4.30993125 C90.8851476,4.30993125 92.8220601,6.24571875 92.8220601,9.33397875 L92.8220601,10.0502887 L84.9591566,10.0502887 L84.9591566,10.1766262 C84.8857445,10.9349118 85.1719336,11.6855094 85.7449267,12.2374912 C86.3179198,12.789473 87.1224901,13.0896375 87.953981,13.0616325 C89.062913,13.1566946 90.1084189,12.5740999 90.5249153,11.6290125 L92.6947689,11.6290237 Z M84.9699434,8.58911625 L90.5357114,8.58911625 C90.5771812,7.90773468 90.3060861,7.24142597 89.7877401,6.75071049 C89.269394,6.25999501 88.5507951,5.98936546 87.8050729,6.00402375 C87.0534517,5.99992001 86.3311782,6.27067646 85.7987914,6.7561124 C85.2664046,7.24154834 84.9680176,7.90144078 84.9699434,8.58911625 L84.9699434,8.58911625 Z" id="Shape"></path>
                                        </g>
                                    </g>
                                </g>
                                <g id="_Group_4" transform="translate(49.800000, 9.000000)" fill="#FFFFFF" fill-rule="nonzero">
                                    <g id="Group">
                                        <path d="M2.86035215,0.822375 C3.83046421,0.758682204 4.78066753,1.09636586 5.44942499,1.74248079 C6.11818246,2.38859573 6.43500337,3.27503789 6.31268489,4.15782 C6.31268489,6.30235125 5.04583437,7.53507 2.86035215,7.53507 L0.210168296,7.53507 L0.210168296,0.822375 L2.86035215,0.822375 Z M1.34972756,6.58575 L2.73306089,6.58575 C3.42635306,6.62366476 4.10141306,6.37375388 4.57080202,5.90540826 C5.04019099,5.43706265 5.25393641,4.80014372 5.15268919,4.1715 C5.2465702,3.5454651 5.02974661,2.91380199 4.56152147,2.44927573 C4.09329633,1.98474947 3.42266875,1.73597209 2.73306089,1.77098625 L1.34972756,1.77098625 L1.34972756,6.58575 Z" id="Shape"></path>
                                        <path d="M7.59994726,4.9998825 C7.50500402,4.09187818 7.98089102,3.21312593 8.82802255,2.73217204 C9.67515407,2.25121815 10.7470636,2.25121815 11.5941951,2.73217204 C12.4413266,3.21312593 12.9172136,4.09187818 12.8222704,4.9998825 C12.91902,5.90886255 12.4435674,6.78931918 11.5956847,7.27130846 C10.7478021,7.75329775 9.67441553,7.75329775 8.82653289,7.27130846 C7.97865025,6.78931918 7.50319761,5.90886255 7.59994726,4.9998825 Z M11.6983151,4.9998825 C11.6983151,3.90180375 11.1591348,3.25965375 10.2129102,3.25965375 C9.26307052,3.25965375 8.72874726,3.90180375 8.72874726,4.99989375 C8.72874726,6.10677 9.26310741,6.74397 10.2129102,6.74397 C11.1591594,6.74397 11.6983151,6.10236 11.6983151,4.9998825 L11.6983151,4.9998825 Z" id="Shape"></path>
                                        <polygon id="Shape" points="19.7641567 7.53496875 18.6305981 7.53496875 17.486231 3.8040075 17.3997757 3.8040075 16.2602041 7.53496875 15.1374416 7.53496875 13.611213 2.4691725 14.7195643 2.4691725 15.7114327 6.3346725 15.7930924 6.3346725 16.931459 2.4691725 17.9797674 2.4691725 19.1181339 6.3346725 19.2045892 6.3346725 20.1916498 2.4691725 21.2843847 2.4691725"></polygon>
                                        <path d="M22.5680443,2.4691725 L23.6199556,2.4691725 L23.6199556,3.27391875 L23.7016153,3.27391875 C23.9855796,2.68141268 24.6491222,2.31897091 25.3539301,2.3713875 C25.8996604,2.33384824 26.4344374,2.52538864 26.8072672,2.89192733 C27.1800969,3.25846602 27.3505204,3.76022673 27.2704185,4.2555375 L27.2704185,7.5349125 L26.1776836,7.5349125 L26.1776836,4.5065925 C26.1776836,3.69250875 25.7910265,3.287655 24.982877,3.287655 C24.6127165,3.27188151 24.2534855,3.40479289 23.9993634,3.65154388 C23.7452413,3.89829487 23.6215726,4.23427614 23.6607793,4.57140375 L23.6607793,7.53496875 L22.5680443,7.53496875 L22.5680443,2.4691725 Z" id="Shape"></path>
                                        <polygon id="Shape" points="29.0115987 0.491625 30.1043336 0.491625 30.1043336 7.5349575 29.0115987 7.5349575"></polygon>
                                        <path d="M31.6233566,4.9998825 C31.5284863,4.09181878 32.0044483,3.21304428 32.8516427,2.73208298 C33.6988371,2.25112167 34.7708017,2.25112167 35.6179961,2.73208298 C36.4651905,3.21304428 36.9411525,4.09181878 36.8462822,4.9998825 C36.942909,5.90889509 36.4673692,6.78932684 35.6194445,7.2712949 C34.7715198,7.75326295 33.698119,7.75326295 32.8501943,7.2712949 C32.0022696,6.78932684 31.5267298,5.90889509 31.6233566,4.9998825 L31.6233566,4.9998825 Z M35.7217244,4.9998825 C35.7217244,3.90180375 35.1825441,3.25965375 34.2363196,3.25965375 C33.2864799,3.25965375 32.7521566,3.90180375 32.7521566,4.99989375 C32.7521566,6.10677 33.2865167,6.74397 34.2363196,6.74397 C35.1825564,6.74397 35.7217244,6.10236 35.7217244,4.9998825 L35.7217244,4.9998825 Z" id="Shape"></path>
                                        <path d="M37.9966622,6.10236 C37.9966622,5.19049125 38.7387683,4.66480125 40.0560459,4.59009 L41.5558621,4.51099125 L41.5558621,4.0737375 C41.5558621,3.53869875 41.169205,3.23658 40.4223034,3.23658 C39.8122964,3.23658 39.3896113,3.44147625 39.2683206,3.79963125 L38.2104087,3.79963125 C38.3220837,2.92951125 39.2166884,2.37141 40.4727305,2.37141 C41.8608717,2.37141 42.6438015,3.00366 42.6438015,4.0737375 L42.6438015,7.53498 L41.5918902,7.53498 L41.5918902,6.82306875 L41.505435,6.82306875 C41.1481644,7.34296088 40.5128209,7.64680864 39.8423117,7.61844375 C39.3722687,7.66317579 38.9034786,7.52389949 38.5518348,7.2350465 C38.2001911,6.94619351 37.9985141,6.53472372 37.9966622,6.10236 L37.9966622,6.10236 Z M41.5558621,5.66949375 L41.5558621,5.24597625 L40.203749,5.325075 C39.4412311,5.3717625 39.0953978,5.60907 39.0953978,6.05566125 C39.0953978,6.51159 39.5276864,6.77691 40.1221385,6.77691 C40.4740414,6.8095011 40.8253347,6.71003443 41.0955999,6.50128004 C41.3658651,6.29252564 41.53196,5.99235869 41.5558621,5.66949375 Z" id="Shape"></path>
                                        <path d="M44.0799597,4.9998825 C44.0799597,3.39917625 44.9793723,2.385135 46.3783096,2.385135 C47.0847033,2.3553564 47.7463064,2.70165698 48.076256,3.273885 L48.1579157,3.273885 L48.1579157,0.491625 L49.2506507,0.491625 L49.2506507,7.5349575 L48.2035473,7.5349575 L48.2035473,6.73459875 L48.117092,6.73459875 C47.7622014,7.30207911 47.0924472,7.64252604 46.3783219,7.61844375 C44.9697689,7.6185 44.0799597,6.60443625 44.0799597,4.9998825 Z M45.2087597,4.9998825 C45.2087597,6.0743475 45.762339,6.72089625 46.688164,6.72089625 C47.6091566,6.72089625 48.1783644,6.06502125 48.1783644,5.00428125 C48.1783644,3.94849125 47.6031806,3.2832675 46.688164,3.2832675 C45.7683027,3.2832675 45.2087228,3.93420375 45.2087228,4.9998825 L45.2087597,4.9998825 Z" id="Shape"></path>
                                        <path d="M53.7717037,4.9998825 C53.6767605,4.09187818 54.1526475,3.21312593 54.999779,2.73217204 C55.8469105,2.25121815 56.91882,2.25121815 57.7659515,2.73217204 C58.6130831,3.21312593 59.0889701,4.09187818 58.9940268,4.9998825 C59.0907765,5.90886255 58.6153238,6.78931918 57.7674412,7.27130846 C56.9195585,7.75329775 55.846172,7.75329775 54.9982893,7.27130846 C54.1504067,6.78931918 53.6749541,5.90886255 53.7717037,4.9998825 L53.7717037,4.9998825 Z M57.8700593,4.9998825 C57.8700593,3.90180375 57.3308913,3.25965375 56.3846667,3.25965375 C55.434827,3.25965375 54.9005037,3.90180375 54.9005037,4.99989375 C54.9005037,6.10677 55.4348639,6.74397 56.3846667,6.74397 C57.3309036,6.74397 57.8700593,6.10236 57.8700593,4.9998825 Z" id="Shape"></path>
                                        <path d="M60.4602126,2.4691725 L61.5121239,2.4691725 L61.5121239,3.27391875 L61.5937836,3.27391875 C61.8777479,2.68141268 62.5412905,2.31897091 63.2460984,2.3713875 C63.7918287,2.33384824 64.3266057,2.52538864 64.6994355,2.89192733 C65.0722652,3.25846602 65.2426887,3.76022673 65.1625868,4.2555375 L65.1625868,7.5349125 L64.0698519,7.5349125 L64.0698519,4.5065925 C64.0698519,3.69250875 63.6831948,3.287655 62.8750453,3.287655 C62.5048848,3.27188151 62.1456538,3.40479289 61.8915317,3.65154388 C61.6374096,3.89829487 61.5137409,4.23427614 61.5529476,4.57140375 L61.5529476,7.53496875 L60.4602126,7.53496875 L60.4602126,2.4691725 Z" id="Shape"></path>
                                        <path d="M71.3371597,1.20794625 L71.3371597,2.49224625 L72.5367741,2.49224625 L72.5367741,3.33435375 L71.3371597,3.33435375 L71.3371597,5.9392125 C71.3371597,6.4698525 71.5761259,6.70221 72.1200895,6.70221 C72.2593519,6.70180223 72.3984745,6.69409837 72.5367741,6.67913625 L72.5367741,7.511895 C72.3405369,7.54401456 72.1417133,7.56110255 71.9423711,7.56298125 C70.7271527,7.56298125 70.2432197,7.17186375 70.2432197,6.19518375 L70.2432197,3.33430875 L69.3642313,3.33430875 L69.3642313,2.49220125 L70.2432197,2.49220125 L70.2432197,1.20794625 L71.3371597,1.20794625 Z" id="Shape"></path>
                                        <path d="M74.0293723,0.491625 L75.1125039,0.491625 L75.1125039,3.28325625 L75.1989591,3.28325625 C75.4965636,2.68556463 76.1717193,2.32266098 76.8872406,2.37578625 C77.429872,2.34877194 77.9574098,2.54452918 78.3261646,2.90973809 C78.6949194,3.27494699 78.8664831,3.77156884 78.7941256,4.264335 L78.7941256,7.53496875 L77.7002963,7.53496875 L77.7002963,4.51096875 C77.7002963,3.70182375 77.2883704,3.29203125 76.5162982,3.29203125 C76.1361324,3.26350538 75.7615873,3.38995233 75.4927943,3.63756769 C75.2240012,3.88518305 75.0883686,4.22871785 75.1221564,4.57633125 L75.1221564,7.53496875 L74.0294215,7.53496875 L74.0293723,0.491625 Z" id="Shape"></path>
                                        <path d="M85.1656852,6.16717125 C84.8592701,7.12272317 83.8485661,7.74011592 82.7664687,7.6327425 C82.0281547,7.65057397 81.3185939,7.37058454 80.8260495,6.86706206 C80.3335052,6.36353958 80.1077714,5.68738793 80.2087407,5.01800625 C80.1104532,4.34676429 80.3353412,3.6695292 80.8251428,3.16175282 C81.3149444,2.65397645 82.0214632,2.36562385 82.7616609,2.37139875 C84.3023007,2.37139875 85.2317286,3.33439875 85.2317286,4.92514875 L85.2317286,5.274 L81.3218876,5.274 L81.3218876,5.330025 C81.2872883,5.70593266 81.427612,6.07775372 81.7083488,6.35404579 C81.9890856,6.63033786 82.3841866,6.78546441 82.796484,6.781275 C83.3310924,6.83999402 83.851497,6.59737467 84.1137739,6.1671375 L85.1656852,6.16717125 Z M81.321863,4.534605 L84.1185449,4.534605 C84.1463996,4.19080549 84.0142704,3.85223071 83.7547183,3.60231648 C83.4951662,3.35240225 83.1323297,3.21439075 82.7556234,3.2222925 C82.3738136,3.21790378 82.0062477,3.35477389 81.7363051,3.60185499 C81.4663625,3.84893609 81.3169237,4.18528545 81.3218876,4.534605 L81.321863,4.534605 Z" id="Shape"></path>
                                    </g>
                                </g>
                            </g>
                        </g>
                    </g>
                </g>
            </g>
        </g>
    </g>
</svg>